<?xml version="1.0" encoding="UTF-8"?>
<svg id="Ebene_1" data-name="Ebene 1" xmlns="http://www.w3.org/2000/svg" viewBox="0 0 428.45 334.23">
  <defs>
    <style>
      .cls-1 {
        fill: #fffcf7;
      }
    </style>
  </defs>
  <g>
    <path class="cls-1" d="M203.45,277.59v3.18c-26.97,29.21-66.13,55.85-107.74,53.29-28.64-1.77-57.89-18.53-79.07-36.98C13.59,294.41-.11,281.94,0,278.78c.16-4.57,25.78-25.33,30.72-28.86,14.6-10.44,32.63-19.86,50.32-23.6,47.74-10.1,91.69,17.35,122.41,51.28ZM94.36,231.69c-53.62,6.72-53.39,90.34,2.99,95.17,69.02,5.91,69.06-104.19-2.99-95.17ZM61.97,317.32c-17.32-18.83-20.47-46.95-6.21-68.6.78-1.18,6.82-7.88,6.2-8.5-20.04,9.27-37.82,22.81-53.21,38.55,14.99,16,32.85,30.04,53.22,38.54ZM141.45,317.32c20.34-8.02,37.88-22.52,53.2-37.86-14.09-16.34-32.38-29.51-52-38.45-.84.2.61,1.99.85,2.33,2.08,2.82,4.22,5.12,6.03,8.28,12.08,21.05,8.85,48.35-8.08,65.7Z"/>
    <path class="cls-1" d="M165.87,202.19c2.06-.56,4.93,1.45,4.98,3.45s-14.45,21.2-16.45,21.76c-.92.26-1.78.25-2.61-.26-2.47-2.21-2.44-3.05-.96-5.73,1.26-2.27,13.86-18.89,15.04-19.22Z"/>
    <path class="cls-1" d="M39.15,226.47c-2.58-5.68-12.53-14.33-14.22-19.61-.76-2.36.78-3.51,2.63-4.67,1.61-.41,3.11.85,4.2,1.88,1.24,1.18,12.43,16.1,12.91,17.29,1.95,4.76-1.12,7.84-5.52,5.11Z"/>
    <path class="cls-1" d="M136.48,191.15c.95.94.92,2.53.68,3.79-.41,2.17-6.73,19.1-7.83,20.85-1.32,2.1-2.2,2.66-4.84,2.07-1.74-.97-2.3-2.99-1.99-4.85.47-2.81,5.43-15.59,6.87-18.64,1.33-2.81,3.89-6.4,7.11-3.23Z"/>
    <path class="cls-1" d="M72.1,216.99c-1.12.75-2.69,1.25-4.01.88-2.95-.82-7.92-19.96-9.95-23.54.11-5.08,4.52-5.91,7.16-1.55,1.12,1.85,7.3,18.18,7.66,20.23.26,1.45,0,2.77-.85,3.97Z"/>
    <path class="cls-1" d="M94.74,213.81c-.88-.89-.91-2.9-1.02-4.14-.38-4.57-.58-15.55.09-19.85.79-5.11,6.32-4.77,7.08-.83.53,2.77.53,20.23,0,23.01-.58,3.07-4.28,3.69-6.15,1.82Z"/>
    <path class="cls-1" d="M118.91,296.38c-22.65,22.11-56.43-11.96-34.68-34.29s57.66,11.86,34.68,34.29ZM114.95,266.73c-6.6-6.54-18.34,3.11-11.28,10.89,7.09,7.81,18.94-3.3,11.28-10.89Z"/>
  </g>
  <g>
    <path class="cls-1" d="M428.45,277.59v3.18c-26.97,29.21-66.13,55.85-107.74,53.29-28.64-1.77-57.89-18.53-79.07-36.98-3.06-2.66-16.75-15.14-16.65-18.3.16-4.57,25.78-25.33,30.72-28.86,14.6-10.44,32.63-19.86,50.32-23.6,47.74-10.1,91.69,17.35,122.41,51.28ZM319.36,231.69c-53.62,6.72-53.39,90.34,2.99,95.17,69.02,5.91,69.06-104.19-2.99-95.17ZM286.97,317.32c-17.32-18.83-20.47-46.95-6.21-68.6.78-1.18,6.82-7.88,6.2-8.5-20.04,9.27-37.82,22.81-53.21,38.55,14.99,16,32.85,30.04,53.22,38.54ZM366.45,317.32c20.34-8.02,37.88-22.52,53.2-37.86-14.09-16.34-32.38-29.51-52-38.45-.84.2.61,1.99.85,2.33,2.08,2.82,4.22,5.12,6.03,8.28,12.08,21.05,8.85,48.35-8.08,65.7Z"/>
    <path class="cls-1" d="M390.87,202.19c2.06-.56,4.93,1.45,4.98,3.45s-14.45,21.2-16.45,21.76c-.92.26-1.78.25-2.61-.26-2.47-2.21-2.44-3.05-.96-5.73,1.26-2.27,13.86-18.89,15.04-19.22Z"/>
    <path class="cls-1" d="M264.15,226.47c-2.58-5.68-12.53-14.33-14.22-19.61-.76-2.36.78-3.51,2.63-4.67,1.61-.41,3.11.85,4.2,1.88,1.24,1.18,12.43,16.1,12.91,17.29,1.95,4.76-1.12,7.84-5.52,5.11Z"/>
    <path class="cls-1" d="M361.48,191.15c.95.94.92,2.53.68,3.79-.41,2.17-6.73,19.1-7.83,20.85-1.32,2.1-2.2,2.66-4.84,2.07-1.74-.97-2.3-2.99-1.99-4.85.47-2.81,5.43-15.59,6.87-18.64,1.33-2.81,3.89-6.4,7.11-3.23Z"/>
    <path class="cls-1" d="M297.1,216.99c-1.12.75-2.69,1.25-4.01.88-2.95-.82-7.92-19.96-9.95-23.54.11-5.08,4.52-5.91,7.16-1.55,1.12,1.85,7.3,18.18,7.66,20.23.26,1.45,0,2.77-.85,3.97Z"/>
    <path class="cls-1" d="M319.74,213.81c-.88-.89-.91-2.9-1.02-4.14-.38-4.57-.58-15.55.09-19.85.79-5.11,6.32-4.77,7.08-.83.53,2.77.53,20.23,0,23.01-.58,3.07-4.28,3.69-6.15,1.82Z"/>
    <path class="cls-1" d="M343.91,296.38c-22.65,22.11-56.43-11.96-34.68-34.29,22.56-23.15,57.66,11.86,34.68,34.29ZM339.95,266.73c-6.6-6.54-18.34,3.11-11.28,10.89,7.09,7.81,18.94-3.3,11.28-10.89Z"/>
  </g>
  <g>
    <path class="cls-1" d="M203.45,91.59v3.18c-26.97,29.21-66.13,55.85-107.74,53.29-28.64-1.77-57.89-18.53-79.07-36.98C13.59,108.41-.11,95.94,0,92.78c.16-4.57,25.78-25.33,30.72-28.86,14.6-10.44,32.63-19.86,50.32-23.6,47.74-10.1,91.69,17.35,122.41,51.28ZM94.36,45.69c-53.62,6.72-53.39,90.34,2.99,95.17,69.02,5.91,69.06-104.19-2.99-95.17ZM61.97,131.32c-17.32-18.83-20.47-46.95-6.21-68.6.78-1.18,6.82-7.88,6.2-8.5-20.04,9.27-37.82,22.81-53.21,38.55,14.99,16,32.85,30.04,53.22,38.54ZM141.45,131.32c20.34-8.02,37.88-22.52,53.2-37.86-14.09-16.34-32.38-29.51-52-38.45-.84.2.61,1.99.85,2.33,2.08,2.82,4.22,5.12,6.03,8.28,12.08,21.05,8.85,48.35-8.08,65.7Z"/>
    <path class="cls-1" d="M165.87,16.19c2.06-.56,4.93,1.45,4.98,3.45s-14.45,21.2-16.45,21.76c-.92.26-1.78.25-2.61-.26-2.47-2.21-2.44-3.05-.96-5.73,1.26-2.27,13.86-18.89,15.04-19.22Z"/>
    <path class="cls-1" d="M39.15,40.47c-2.58-5.68-12.53-14.33-14.22-19.61-.76-2.36.78-3.51,2.63-4.67,1.61-.41,3.11.85,4.2,1.88,1.24,1.18,12.43,16.1,12.91,17.29,1.95,4.76-1.12,7.84-5.52,5.11Z"/>
    <path class="cls-1" d="M136.48,5.15c.95.94.92,2.53.68,3.79-.41,2.17-6.73,19.1-7.83,20.85-1.32,2.1-2.2,2.66-4.84,2.07-1.74-.97-2.3-2.99-1.99-4.85.47-2.81,5.43-15.59,6.87-18.64,1.33-2.81,3.89-6.4,7.11-3.23Z"/>
    <path class="cls-1" d="M72.1,30.99c-1.12.75-2.69,1.25-4.01.88-2.95-.82-7.92-19.96-9.95-23.54.11-5.08,4.52-5.91,7.16-1.55,1.12,1.85,7.3,18.18,7.66,20.23.26,1.45,0,2.77-.85,3.97Z"/>
    <path class="cls-1" d="M94.74,27.81c-.88-.89-.91-2.9-1.02-4.14-.38-4.57-.58-15.55.09-19.85.79-5.11,6.32-4.77,7.08-.83.53,2.77.53,20.23,0,23.01-.58,3.07-4.28,3.69-6.15,1.82Z"/>
    <path class="cls-1" d="M118.91,110.38c-22.65,22.11-56.43-11.96-34.68-34.29s57.66,11.86,34.68,34.29ZM114.95,80.73c-6.6-6.54-18.34,3.11-11.28,10.89,7.09,7.81,18.94-3.3,11.28-10.89Z"/>
  </g>
  <g>
    <path class="cls-1" d="M428.45,91.59v3.18c-26.97,29.21-66.13,55.85-107.74,53.29-28.64-1.77-57.89-18.53-79.07-36.98-3.06-2.66-16.75-15.14-16.65-18.3.16-4.57,25.78-25.33,30.72-28.86,14.6-10.44,32.63-19.86,50.32-23.6,47.74-10.1,91.69,17.35,122.41,51.28ZM319.36,45.69c-53.62,6.72-53.39,90.34,2.99,95.17,69.02,5.91,69.06-104.19-2.99-95.17ZM286.97,131.32c-17.32-18.83-20.47-46.95-6.21-68.6.78-1.18,6.82-7.88,6.2-8.5-20.04,9.27-37.82,22.81-53.21,38.55,14.99,16,32.85,30.04,53.22,38.54ZM366.45,131.32c20.34-8.02,37.88-22.52,53.2-37.86-14.09-16.34-32.38-29.51-52-38.45-.84.2.61,1.99.85,2.33,2.08,2.82,4.22,5.12,6.03,8.28,12.08,21.05,8.85,48.35-8.08,65.7Z"/>
    <path class="cls-1" d="M390.87,16.19c2.06-.56,4.93,1.45,4.98,3.45s-14.45,21.2-16.45,21.76c-.92.26-1.78.25-2.61-.26-2.47-2.21-2.44-3.05-.96-5.73,1.26-2.27,13.86-18.89,15.04-19.22Z"/>
    <path class="cls-1" d="M264.15,40.47c-2.58-5.68-12.53-14.33-14.22-19.61-.76-2.36.78-3.51,2.63-4.67,1.61-.41,3.11.85,4.2,1.88,1.24,1.18,12.43,16.1,12.91,17.29,1.95,4.76-1.12,7.84-5.52,5.11Z"/>
    <path class="cls-1" d="M361.48,5.15c.95.94.92,2.53.68,3.79-.41,2.17-6.73,19.1-7.83,20.85-1.32,2.1-2.2,2.66-4.84,2.07-1.74-.97-2.3-2.99-1.99-4.85.47-2.81,5.43-15.59,6.87-18.64,1.33-2.81,3.89-6.4,7.11-3.23Z"/>
    <path class="cls-1" d="M297.1,30.99c-1.12.75-2.69,1.25-4.01.88-2.95-.82-7.92-19.96-9.95-23.54.11-5.08,4.52-5.91,7.16-1.55,1.12,1.85,7.3,18.18,7.66,20.23.26,1.45,0,2.77-.85,3.97Z"/>
    <path class="cls-1" d="M319.74,27.81c-.88-.89-.91-2.9-1.02-4.14-.38-4.57-.58-15.55.09-19.85.79-5.11,6.32-4.77,7.08-.83.53,2.77.53,20.23,0,23.01-.58,3.07-4.28,3.69-6.15,1.82Z"/>
    <path class="cls-1" d="M343.91,110.38c-22.65,22.11-56.43-11.96-34.68-34.29,22.56-23.15,57.66,11.86,34.68,34.29ZM339.95,80.73c-6.6-6.54-18.34,3.11-11.28,10.89,7.09,7.81,18.94-3.3,11.28-10.89Z"/>
  </g>
</svg>