<?xml version="1.0" encoding="UTF-8"?>
<svg id="Ebene_2" data-name="Ebene 2" xmlns="http://www.w3.org/2000/svg" viewBox="0 0 181.46 198.4">
  <path d="M48,145.2C21.6,145.2,0,123.7,0,97.2s21.5-48,48-48,25.4,4.3,33.8,12.3c1.5,1.5,2.4,3.4,2.4,5.5s-.7,4.1-2.2,5.6c-1.5,1.6-3.5,2.4-5.6,2.4s-4-.8-5.4-2.2c-5.5-5.1-13.2-7.7-23-7.7-16.8,0-31.6,15-31.6,32s14.5,32,31.6,32,25.3-8.4,28.6-22.5h-16.8c-4.2,0-7.6-3.5-7.6-7.8s3.4-7.8,7.6-7.8h29.8c1.8,0,3.3,2,3.6,3.5.2,1.1.4,2.5.4,3.3.6,13.3-3.6,25.3-11.9,33.9s-19.9,13.2-33.7,13.2h0v.3h0Z"/>
  <path d="M135.8,198.4c-26.4,0-48-21.5-48-48s21.5-47.9,48-47.9,25.4,4.3,33.8,12.3c1.5,1.5,2.4,3.4,2.4,5.5s-.7,4.1-2.2,5.6c-1.5,1.6-3.5,2.4-5.6,2.4s-4-.8-5.4-2.2c-5.5-5.1-13.2-7.7-23-7.7-16.8,0-31.6,15-31.6,32s14.5,32,31.6,32,25.3-8.4,28.6-22.5h-16.8c-4.2,0-7.6-3.5-7.6-7.8s3.4-7.8,7.6-7.8h29.8c1.8,0,3.3,2,3.6,3.5.2,1.1.4,2.5.4,3.3.6,13.3-3.6,25.3-11.9,33.9-8.3,8.6-19.9,13.2-33.6,13.2h0l-.1.2h0Z"/>
  <path d="M135.8,95.9c-26.4,0-48-21.5-48-48S109.4,0,135.8,0s25.4,4.3,33.8,12.3c1.5,1.5,2.4,3.4,2.4,5.5s-.7,4.1-2.2,5.6c-1.5,1.6-3.5,2.4-5.6,2.4s-4-.8-5.4-2.2c-5.5-5.1-13.2-7.7-23-7.7-16.8,0-31.6,15-31.6,32s14.5,32,31.6,32,25.3-8.4,28.6-22.5h-16.8c-4.2,0-7.6-3.5-7.6-7.8s3.4-7.8,7.6-7.8h29.8c1.8,0,3.3,2,3.6,3.5.2,1.1.4,2.5.4,3.3.6,13.3-3.6,25.3-11.9,33.9-8.3,8.6-19.9,13.2-33.6,13.2h0l-.1.2h0Z"/>
</svg>