<?xml version="1.0" encoding="UTF-8"?>
<svg id="Ebene_1" data-name="Ebene 1" xmlns="http://www.w3.org/2000/svg" viewBox="0 0 80 59.53">
  <path fill="currentColor" d="M79.16,13.83c-1.13-4.89-3.42-9.54-6.61-13.42-.32-.38-.84-.52-1.3-.33l-12.43,5.05c-2.71,1.09-6.43.52-11.06-1.7-3.58-2.14-9.78-1.21-18.95,2.84-2.32-.27-4.91-.67-7.73-1.19L8.75.09c-.46-.19-.99-.05-1.3.33C4.25,4.3,1.97,8.94.84,13.84c-1.13,4.89-1.12,10.06.04,14.95.09.36.34.65.68.79l7.52,3.05,1.32,1.14-1.11.96c-.87.75-1.39,1.8-1.47,2.94-.08,1.15.29,2.26,1.04,3.12l.82.95c.74.86,1.75,1.35,2.8,1.46-.04.2-.07.4-.09.6-.09,1.18.29,2.33,1.07,3.22l.64.73c.77.89,1.85,1.43,3.04,1.52.11,0,.22.01.33.01.29,0,.57-.03.85-.09.04.97.39,1.93,1.07,2.72l.62.73c.88,1.02,2.12,1.54,3.36,1.54.47,0,.93-.08,1.39-.22.09.87.44,1.72,1.05,2.43l.62.72c.88,1.01,2.12,1.53,3.37,1.53,1.03,0,2.07-.36,2.91-1.08l2.58-2.23,3.8,3.3c.71.61,1.57.91,2.44.91,1.05,0,2.09-.44,2.82-1.29,0,0,.64-.74,1.94-2.23.34-.4.58-.84.73-1.32.68.54,1.49.8,2.3.8,1.05,0,2.09-.44,2.83-1.29,0,0,.64-.74,1.93-2.23.34-.39.58-.84.73-1.31.68.54,1.49.8,2.3.8,1.05,0,2.09-.44,2.83-1.29,0,0,.65-.75,1.94-2.23.34-.4.59-.85.73-1.32.68.54,1.49.8,2.3.8,1.05,0,2.09-.44,2.83-1.29l1.93-2.23c1.34-1.56,1.17-3.92-.38-5.27l-1.52-1.31c1.44-.92,2.59-2.53,3.41-4.81l7.22-2.93c.34-.14.59-.43.68-.79,1.17-4.89,1.18-10.06.05-14.96h0ZM11.4,40.26l-.82-.95c-.36-.41-.53-.93-.49-1.47.04-.54.29-1.04.7-1.39l2.87-2.48c.37-.32.83-.49,1.32-.49.05,0,.1,0,.15,0,.54.04,1.04.29,1.39.69l.82.95c.36.41.53.93.49,1.47-.04.54-.29,1.04-.7,1.39l-2.87,2.49c-.85.73-2.13.64-2.86-.2h0ZM17.3,47.02c-.58-.04-1.11-.3-1.48-.74l-.64-.74c-.38-.43-.56-.99-.52-1.57.04-.58.3-1.11.74-1.48l2.66-2.31c.39-.34.89-.52,1.41-.52.05,0,.11,0,.16,0,.58.04,1.11.3,1.48.74h0s.64.74.64.74c.38.43.56,1,.52,1.57s-.3,1.11-.74,1.48l-2.67,2.31c-.44.38-1,.56-1.57.52h0ZM21.73,51.17l-.62-.73c-.79-.91-.69-2.28.22-3.07l2.65-2.29c.41-.36.92-.53,1.42-.53.61,0,1.22.25,1.64.75h0s.62.72.62.72c.79.91.68,2.29-.22,3.07l-2.64,2.29c-.91.79-2.29.69-3.07-.21ZM33.88,53.56l-2.64,2.29c-.91.79-2.29.69-3.08-.21l-.62-.72c-.79-.91-.69-2.29.22-3.07l2.64-2.29c.39-.34.89-.53,1.42-.53.05,0,.11,0,.16,0,.59.04,1.12.3,1.5.74l.62.72c.65.75.7,1.82.18,2.61h0c-.11.17-.24.33-.4.46h0ZM67.99,42.42l-1.93,2.23c-.54.61-1.46.68-2.08.15l-13.95-12.07c-.47-.41-1.19-.36-1.6.11-.41.47-.36,1.19.11,1.6l11.44,9.9s.03.03.04.04c.61.53.68,1.46.15,2.07-1.28,1.48-1.93,2.23-1.93,2.23-.53.61-1.46.68-2.07.15l-2.42-2.1-.04-.04s-.03-.02-.05-.04l-11.44-9.91c-.47-.41-1.19-.36-1.6.11-.41.47-.36,1.19.11,1.6l11.52,9.98c.57.54.63,1.44.12,2.04-1.29,1.49-1.93,2.23-1.93,2.23-.53.61-1.46.68-2.07.15l-13.95-12.07c-.47-.41-1.19-.36-1.6.11-.41.47-.36,1.19.11,1.6l11.48,9.94c.61.53.68,1.46.15,2.07-1.29,1.48-1.93,2.23-1.93,2.23-.53.61-1.46.68-2.07.15l-3.97-3.44c.55-1.48.3-3.2-.8-4.47l-.62-.71c-.78-.9-1.86-1.44-3.05-1.53-.59-.04-1.16.03-1.71.21-.09-.87-.44-1.72-1.05-2.43l-.63-.72c-.77-.89-1.85-1.43-3.04-1.52-.4-.03-.79,0-1.18.07-.04-1-.41-1.95-1.07-2.72l-.64-.74c-.73-.84-1.73-1.37-2.84-1.5.05-.21.08-.44.1-.66.08-1.15-.29-2.25-1.04-3.12l-.82-.95c-.75-.87-1.79-1.39-2.94-1.47-1.15-.08-2.26.29-3.12,1.04l-.03.03-1.71-1.48c-.09-.08-.2-.14-.32-.19l-7.15-2.9c-1.91-8.78.21-18.09,5.72-25.19l11.66,4.74c.07.03.14.05.22.07,2.26.42,4.39.76,6.35,1.02-3.09,4.26-5.12,8.17-6.05,11.66-.11.41.02.85.34,1.13,1.93,1.74,3.86,2.5,5.75,2.25,2.06-.27,4-1.75,5.77-4.39,2.92-1.14,5.25-2.09,6.96-2.84,2.92,3.56,5.97,6.14,9.14,7.73l16.18,14.01s0,0,0,0l2.86,2.47c.61.53.68,1.46.15,2.07h0ZM77.04,27.7l-7.15,2.9c-.31.12-.55.38-.65.7-.79,2.4-1.89,3.88-3.27,4.42l-11.66-10.09c2.64.38,5.35.12,8.12-.77.6-.19.92-.83.73-1.43-.19-.6-.83-.92-1.43-.73-4.05,1.31-7.91,1.09-11.61-.69-.1-.07-.21-.12-.32-.16-3.05-1.54-6.01-4.14-8.91-7.81-.32-.41-.89-.55-1.36-.33-1.76.8-4.45,1.91-7.98,3.28-.22.09-.41.24-.54.45-1.45,2.25-2.91,3.49-4.36,3.68-1.05.14-2.19-.27-3.4-1.23,1.04-3.4,3.21-7.27,6.46-11.52,10.43-4.61,14.96-4.16,16.92-2.96.03.02.07.04.1.05,5.26,2.53,9.61,3.13,12.95,1.78l11.65-4.73c5.51,7.09,7.62,16.41,5.72,25.19h0Z"/>
</svg>