<?xml version="1.0" encoding="UTF-8"?>
<svg id="Ebene_1" data-name="Ebene 1" xmlns="http://www.w3.org/2000/svg" viewBox="0 0 55.17 64.8">
  <defs>
    <style>
      .cls-1 {
        fill: #fff;
        fill-rule: evenodd;
      }
    </style>
  </defs>
  <path class="cls-1" d="M49.17,64.8H6c-3.31,0-6-2.69-6-6v-31.19c0-3.31,2.69-6,6-6h1.16v-1.18h.04c0-11.28,9.15-20.43,20.43-20.43s20.34,9.15,20.34,20.43c0,.41.02.8.02,1.17h1.18c3.31,0,6,2.69,6,6v31.2c0,3.31-2.68,6-6,6ZM27.67,7.2c-7.29,0-13.2,5.91-13.2,13.2h-.03v1.2h26.37v-.09c.03-.35.06-.71.06-1.1,0-7.29-5.91-13.2-13.21-13.2ZM48,31.23c0-1.33-1.07-2.4-2.4-2.4H9.57c-1.33,0-2.4,1.07-2.4,2.4v23.98c0,1.33,1.08,2.4,2.4,2.4h36.03c1.32,0,2.4-1.07,2.4-2.4v-23.98ZM28.17,50.38h-1.2c-1.65,0-2.99-1.34-2.99-2.99v-8.29c0-1.65,1.34-2.99,2.99-2.99h1.2c1.65,0,2.99,1.34,2.99,2.99v8.29c0,1.65-1.34,2.99-2.99,2.99Z"/>
</svg>